<svg width="32" height="32" viewBox="0 0 32 32" fill="none" xmlns="http://www.w3.org/2000/svg" role="img" aria-label="GamePeople icon mark, blue">
<path d="M20.704 7.27917C19.5351 7.27917 18.5867 8.22669 18.5867 9.39487C18.5867 10.5633 19.5351 11.5106 20.704 11.5106C21.8713 11.5106 22.8183 10.5633 22.8183 9.39487C22.8183 8.22669 21.8713 7.27917 20.704 7.27917ZM12.5547 7.27917C11.386 7.27917 10.4399 8.22669 10.4399 9.39487C10.4399 10.5633 11.386 11.5106 12.5547 11.5106C13.7231 11.5106 14.6706 10.5633 14.6706 9.39487C14.6706 8.22669 13.7231 7.27917 12.5547 7.27917ZM18.4922 22.8698C18.1966 23.707 17.825 24.4115 15.9906 24.4115C14.1561 24.4115 13.7843 23.707 13.4868 22.8698L11.4862 17.3266C11.4126 17.1143 11.3201 16.9168 11.2262 16.9168C11.0601 16.9168 11.0784 17.1798 11.0784 17.2938L6.99994 24.281V14.6871C6.99994 12.6689 9.52142 12.6689 10.1888 12.6689C11.2821 12.6689 12.8393 12.7845 13.506 14.572L15.6011 20.1479C15.6382 20.2624 15.8423 20.6725 15.9906 20.6725C16.1384 20.6725 16.3423 20.2624 16.3796 20.1479L18.4745 14.572C19.1416 12.7845 20.6977 12.6689 21.8114 12.6689C24.7576 12.6689 25 13.9822 25 14.6871V24.281L20.9204 17.2938C20.9204 16.983 20.8278 16.9168 20.755 16.9168C20.6814 16.9168 20.6072 17.0152 20.4956 17.3266L18.4922 22.8698Z" fill="#2D99D5"></path>
</svg>